<svg id="Layer_1" data-name="Layer 1" xmlns="http://www.w3.org/2000/svg" viewBox="0 0 191 200"><defs><style>.cls-1{fill:#fff;}</style></defs><path class="cls-1" d="M78,58.44c-.38-1.74-.87-3.38-1.07-5.06A7.44,7.44,0,0,1,79,47.55C84,41.77,89.12,36,94.2,30.26c3.06-3.48,6.25-6.85,9.16-10.46A4.31,4.31,0,0,1,111,21.27a16,16,0,0,1,.13,9.75c-3,10-6.06,20-9.05,30a9.73,9.73,0,0,0,3,10.76,152,152,0,0,1,26.64,31.17c5.57,8.82,10.06,18.12,12.14,28.43.63,3.1.94,6.28,1.4,9.48,1.51.1,3.18.09,4.81.36a22.55,22.55,0,0,1,5,1.3c3.07,1.27,6.14,2.46,9.64,2.34v13.4a18.83,18.83,0,0,1-7.3-1.38,54.64,54.64,0,0,0-7.63-2.36,17.29,17.29,0,0,0-10.86,1.58,20.46,20.46,0,0,1-18.24.09,19.53,19.53,0,0,0-17.06,0,20.76,20.76,0,0,1-18.35-.1,19.3,19.3,0,0,0-16.83.11,20.52,20.52,0,0,1-18.13-.06,19.65,19.65,0,0,0-16.85,0c-3.63,1.61-6.4,2.31-9.07,2.11V145.13c2.23-.47,4.42-.82,6.55-1.41,1.6-.45,3.09-1.29,4.67-1.8a20.44,20.44,0,0,1,15.26,1,20,20,0,0,0,17.12,0,21.91,21.91,0,0,1,8.66-2.05A21.35,21.35,0,0,1,86,143a20.13,20.13,0,0,0,12.14,1.48,1.89,1.89,0,0,0,1.29-1.12,65.55,65.55,0,0,0,1.48-6.75c.9-5.92.57-11.89.45-17.84a74.71,74.71,0,0,0-3.26-20.73A39.93,39.93,0,0,0,93.7,87.79,21.77,21.77,0,0,0,81.83,79.3a28.85,28.85,0,0,0-11.94-1c-5,.5-10.09.93-15.14,1.25a86.66,86.66,0,0,1-10.06.19,39.24,39.24,0,0,1-7.75-1.24,8.55,8.55,0,0,1-3.53-2.11c-2-2-1.53-4.72,1-6,4.84-2.48,9.69-4.91,14.53-7.39,3.59-1.83,7.15-3.7,11.12-4.61,5.81-1.34,11.61-1.7,17.4,0A4.16,4.16,0,0,0,78,58.44Z"/><path class="cls-1" d="M154,170.5c-.93,2.63-1.81,5.16-2.71,7.69a29,29,0,0,1-1,2.79,1.38,1.38,0,0,1-1,.72,1.34,1.34,0,0,1-1-.7,55.51,55.51,0,0,0-2.38-5.53c-.67,1.75-1.35,3.51-2,5.27-.22.57-.37,1.07-1.2,1s-.82-.56-1-1.07c-1.16-3.34-2.33-6.67-3.57-10.2a15.52,15.52,0,0,1,2.28,0c.26,0,.54.49.65.81.59,1.74,1.13,3.5,1.79,5.58.67-1.84,1.22-3.37,1.77-4.9s.56-1.57,2.34-1.49l2.19,6.21c.31-.75.53-1.17.67-1.62.38-1.18.77-2.35,1.09-3.54.22-.8.57-1.25,1.49-1.11A10.1,10.1,0,0,0,154,170.5Z"/><path class="cls-1" d="M155.29,181.75V170.38a38.92,38.92,0,0,1,5.86.53,4.66,4.66,0,0,1,2.57,2.09,6.39,6.39,0,0,1,.07,6.59,3.81,3.81,0,0,1-3.21,2.14C158.84,181.81,157.09,181.75,155.29,181.75Zm2.61-2.38c1.41,0,2.89.34,3.61-1.13a4.28,4.28,0,0,0-.17-4.33c-.82-1.3-2.13-1.11-3.44-.95Z"/><path class="cls-1" d="M45.2,181.72H42.7v-4.21H38.36v4.15h-2.6V170.6h2.51v4.13h4.35v-4.16H45.2Z"/><path class="cls-1" d="M59.9,176.08a5.14,5.14,0,0,1,7.8-4.83c2.17,1.22,3,4.34,2.12,7.08a5,5,0,0,1-5.4,3.38C61.46,181.26,59.89,179.23,59.9,176.08ZM65,173.35c-1.62,0-2.44,1-2.43,2.83s.85,2.72,2.41,2.73a2.54,2.54,0,0,0,2.58-2.77A2.49,2.49,0,0,0,65,173.35Z"/><path class="cls-1" d="M137.67,176.15c0,3.23-2.27,5.65-5.24,5.6s-5.06-2.31-5.1-5.71c0-3.08,1.89-5.54,5.14-5.49S137.45,172.56,137.67,176.15Zm-7.67,0c0,1.77.86,2.72,2.42,2.73a2.55,2.55,0,0,0,2.58-2.78,2.49,2.49,0,0,0-2.57-2.78C130.82,173.35,130,174.32,130,176.18Z"/><path class="cls-1" d="M78.51,176.66c.79,1.73,1.51,3.3,2.32,5.09a14.36,14.36,0,0,1-2.22,0,1.42,1.42,0,0,1-.9-.67c-.42-.81-.68-1.69-1-2.53a1.5,1.5,0,0,0-2.07-1v4.11H72V170.59a30.63,30.63,0,0,1,5.16,0,3.42,3.42,0,0,1,1.65,5.81A1.47,1.47,0,0,1,78.51,176.66Zm-3.89-.76a7.87,7.87,0,0,0,2.3-1.06,1.7,1.7,0,0,0-.16-1.68,5.93,5.93,0,0,0-2.14-.68Z"/><path class="cls-1" d="M117.63,170.5c1.33,0,2.57,0,3.8,0,1.66-.06,3,.42,3.67,2.05a3.38,3.38,0,0,1-.94,4.18l2.22,4.91c-2.74.31-2.74.31-3.61-2-.76-2-1-2.25-2.58-2.16v4.18h-2.56Zm2.62,2.21v2.77c2,.15,2.53-.18,2.53-1.37S122.05,172.54,120.25,172.71Z"/><path class="cls-1" d="M102,181.69c-2.48.15-2.48.15-3.41-2.34-1.16,0-2.35,0-3.54,0a1.27,1.27,0,0,0-.8.65,11.2,11.2,0,0,0-.58,1.69H91.09c.76-2.15,1.49-4.22,2.23-6.29.48-1.34,1-2.67,1.45-4a1.16,1.16,0,0,1,1.29-.92c2,0,2,0,2.65,1.83,1,2.69,2,5.38,2.91,8.07C101.77,180.78,101.88,181.2,102,181.69Zm-5.27-8.1h-.33l-1.27,3.82H98Z"/><path class="cls-1" d="M54.37,170.59v2h-4v2.2h3.69v2.12H50.41v2.69h4v2.08H47.76v-11.1Z"/><path class="cls-1" d="M90.09,178.23c.23,2.77-.17,3.31-3,3.49a5,5,0,0,1-5.56-4.78,6,6,0,0,1,1-4.43c2-2.45,4.79-2.29,7.24-1.24.21.08.37.49.39.77.06.62,0,1.25,0,2-2-1.07-3.82-1.7-5.44.26a3,3,0,0,0,0,3.67C86.34,180,88.24,179.19,90.09,178.23Z"/><path class="cls-1" d="M115.6,174c-2.7-1.25-4.16-1.21-5.29.08a3.09,3.09,0,0,0-.16,3.87c1.61,2,3.52,1.16,5.35.31a.73.73,0,0,1,.07.16c-.07.8.12,2.12-.27,2.32a7.34,7.34,0,0,1-3.71.91c-3.25-.28-4.83-2.73-4.67-6a5,5,0,0,1,4.8-5.08,11.24,11.24,0,0,1,3.46.71c.19,0,.38.48.4.75C115.64,172.65,115.6,173.28,115.6,174Z"/><path class="cls-1" d="M30.48,181.7H27.91v-8.57H24.49V170.6h9.29v2.49h-3.3Z"/></svg>