<svg id="Layer_1" data-name="Layer 1" xmlns="http://www.w3.org/2000/svg" viewBox="0 0 95 61"><path d="M80.55,18.54c-8.09-2.37-9.73-.41-10.49,6.55-.63,5.72-2.47,11-6.51,15.28a28.9,28.9,0,0,1-2.82,2.31c1.74-3.37,4-6.15,5.87-9.17.7-1.12,1.15-3.5.54-4.08a5.6,5.6,0,0,0-4.38-.92c-3.56.7-6.13,4.56-6.34,8.83C56.05,44.79,52.31,49,45,50.11c-1.59.24-3.19.43-4.75.65,0,.16-.1.26-.08.32.35,1.05.69,2.09,1.05,3.13.9,2.64.5,3.13-2.34,3.13-3.41,0-6-1.59-8.27-4-.84-.89-1.66-1.79-2.31-2.49-.56,1.23-.91,3-1.49,3.07-1.91.27-4.16.46-5.82-.31-1.87-.86-1.74-3.08-1.05-5.28l7,1.4C26.7,48,26.12,46.38,26.5,45c.83-3.12-.66-5.63-3.92-5.73a17.4,17.4,0,0,0-3,.29c-4.47.66-8.93,1.37-13.4,2a12.82,12.82,0,0,1-2.57-.18c2.12-5.51,5.07-9.31,11-10.32,6.54-1.13,13-2.62,19.49-4.17,5.26-1.26,6.63-3.28,6.69-8.69,0-3.16.13-6.32.29-9.48.08-1.64.45-3.21,2.75-3.79.45,1.19.92,2.34,1.33,3.5,1.33,3.77,2.35,7.68,4,11.27,2.54,5.39,5,5.63,9.2,1.39.42-.42.79-.89,1.21-1.32,1.81-1.93,3.44-4.1,5.53-5.67a8,8,0,0,1,5.26-1.74,57.28,57.28,0,0,1,11,3,15.41,15.41,0,0,1,5.29,3.41c1.08,1.05,1.49,2.79,2.45,4.72C85.77,21.49,83.35,19.36,80.55,18.54Zm-54,15.92c-2.78-1.85-6.15-1-7.33,2.1C22,37.81,24.29,37.11,26.53,34.46Z"/></svg>