<svg id="Layer_1" data-name="Layer 1" xmlns="http://www.w3.org/2000/svg" viewBox="0 0 95 61"><path d="M3.56,23.44c1-1.93,1.37-3.67,2.45-4.72a15.32,15.32,0,0,1,5.29-3.41,57.08,57.08,0,0,1,11-3,8,8,0,0,1,5.26,1.74c2.09,1.57,3.71,3.74,5.53,5.67.41.43.78.9,1.21,1.32,4.22,4.24,6.66,4,9.2-1.39,1.69-3.59,2.71-7.5,4-11.27.41-1.16.88-2.31,1.33-3.5,2.3.58,2.67,2.15,2.75,3.79q.24,4.74.28,9.48c.07,5.41,1.44,7.43,6.7,8.69,6.46,1.55,12.95,3,19.49,4.17,5.92,1,8.87,4.81,11,10.32a12.82,12.82,0,0,1-2.57.18c-4.47-.63-8.93-1.34-13.4-2a17.49,17.49,0,0,0-3-.29c-3.26.1-4.76,2.61-3.92,5.73.37,1.4-.2,3.05-.36,4.78l7-1.4c.68,2.2.82,4.42-1,5.28-1.67.77-3.91.58-5.83.31-.58-.08-.92-1.84-1.48-3.07-.65.7-1.47,1.6-2.31,2.49-2.25,2.38-4.86,4-8.28,4-2.83,0-3.23-.49-2.33-3.13.36-1,.7-2.08,1-3.13,0-.06,0-.16-.08-.32-1.56-.22-3.15-.41-4.74-.65C40.33,49,36.59,44.79,36.22,37.34c-.22-4.27-2.78-8.13-6.35-8.83a5.59,5.59,0,0,0-4.37.92c-.61.58-.16,3,.54,4.08,1.87,3,4.12,5.8,5.87,9.17a28.9,28.9,0,0,1-2.82-2.31c-4-4.28-5.88-9.56-6.51-15.28-.77-7-2.4-8.92-10.49-6.55C9.29,19.36,6.87,21.49,3.56,23.44ZM73.44,36.56c-1.18-3.05-4.55-4-7.33-2.1C68.35,37.11,70.64,37.81,73.44,36.56Z"/></svg>